<svg width="109" height="79" viewBox="0 0 109 79" fill="none" xmlns="http://www.w3.org/2000/svg">
<path d="M35.2574 2.24264C37.6005 -0.100501 41.3995 -0.100505 43.7426 2.24264L76.7574 35.2574C79.1005 37.6005 79.1005 41.3995 76.7574 43.7426L43.7426 76.7574C41.3995 79.1005 37.6005 79.1005 35.2574 76.7574L2.24264 43.7426C-0.100501 41.3995 -0.100505 37.6005 2.24264 35.2574L35.2574 2.24264Z" fill="#65DAFF"/>
<path d="M39.104 34.768C39.104 36.0693 38.8053 37.264 38.208 38.352C37.6107 39.4187 36.6933 40.2827 35.456 40.944C34.2187 41.6053 32.6827 41.936 30.848 41.936H27.456V50H21.984V27.536H30.848C32.64 27.536 34.1547 27.8453 35.392 28.464C36.6293 29.0827 37.5573 29.936 38.176 31.024C38.7947 32.112 39.104 33.36 39.104 34.768ZM30.432 37.584C31.4773 37.584 32.256 37.3387 32.768 36.848C33.28 36.3573 33.536 35.664 33.536 34.768C33.536 33.872 33.28 33.1787 32.768 32.688C32.256 32.1973 31.4773 31.952 30.432 31.952H27.456V37.584H30.432ZM48.7048 26.32V50H43.2328V26.32H48.7048ZM71.5823 32.144V50H66.1103V47.568C65.5556 48.3573 64.7982 48.9973 63.8383 49.488C62.8996 49.9573 61.8542 50.192 60.7022 50.192C59.3369 50.192 58.1316 49.8933 57.0862 49.296C56.0409 48.6773 55.2302 47.792 54.6542 46.64C54.0782 45.488 53.7902 44.1333 53.7902 42.576V32.144H59.2302V41.84C59.2302 43.0347 59.5396 43.9627 60.1582 44.624C60.7769 45.2853 61.6089 45.616 62.6543 45.616C63.7209 45.616 64.5636 45.2853 65.1823 44.624C65.8009 43.9627 66.1103 43.0347 66.1103 41.84V32.144H71.5823ZM86.7448 45.36V50H83.9608C81.9768 50 80.4301 49.52 79.3208 48.56C78.2114 47.5787 77.6568 45.9893 77.6568 43.792V36.688H75.4808V32.144H77.6568V27.792H83.1288V32.144H86.7128V36.688H83.1288V43.856C83.1288 44.3893 83.2568 44.7733 83.5128 45.008C83.7688 45.2427 84.1954 45.36 84.7928 45.36H86.7448ZM99.2008 50.256C97.4514 50.256 95.8728 49.8827 94.4648 49.136C93.0781 48.3893 91.9794 47.3227 91.1688 45.936C90.3794 44.5493 89.9848 42.928 89.9848 41.072C89.9848 39.2373 90.3901 37.6267 91.2008 36.24C92.0114 34.832 93.1208 33.7547 94.5288 33.008C95.9368 32.2613 97.5154 31.888 99.2648 31.888C101.014 31.888 102.593 32.2613 104.001 33.008C105.409 33.7547 106.518 34.832 107.329 36.24C108.139 37.6267 108.545 39.2373 108.545 41.072C108.545 42.9067 108.129 44.528 107.297 45.936C106.486 47.3227 105.366 48.3893 103.937 49.136C102.529 49.8827 100.95 50.256 99.2008 50.256ZM99.2008 45.52C100.246 45.52 101.131 45.136 101.857 44.368C102.603 43.6 102.977 42.5013 102.977 41.072C102.977 39.6427 102.614 38.544 101.889 37.776C101.185 37.008 100.31 36.624 99.2648 36.624C98.1981 36.624 97.3128 37.008 96.6088 37.776C95.9048 38.5227 95.5528 39.6213 95.5528 41.072C95.5528 42.5013 95.8941 43.6 96.5768 44.368C97.2808 45.136 98.1554 45.52 99.2008 45.52Z" fill="#113C49"/>
</svg>
